<svg xmlns="http://www.w3.org/2000/svg" xmlns:xlink="http://www.w3.org/1999/xlink" viewBox="0 0 224.896 264.583" height="1000" width="850"><defs><linearGradient id="a"><stop offset="0" stop-color="#fff"/><stop offset="1" stop-color="#a0a0a0"/></linearGradient><linearGradient y2="67.293" x2="165.008" y1="181.618" x1="29.482" gradientUnits="userSpaceOnUse" id="b" xlink:href="#a"/><filter height="2.56" y="-.78" width="6.197" x="-2.599" id="c" color-interpolation-filters="sRGB"><feGaussianBlur stdDeviation="5.557"/></filter><path id="d" d="M192.824 205.951h49.577v12.008h-49.577z"/></defs><path d="M-3.024 260.615c.19-1.323 6.615-27.026 14.174-32.506 7.56-5.481 17.01-25.703 20.6-46.87 3.59-21.166 10.021-52.193 4.82-67.657-.973-2.89-1.235-10.113-2.275-12.481-.997-2.269-6.083-10.196-6.48-13.87-.756-6.993.658-15.144-.461-19.408-1.89-7.201-2.414-18.129-2.65-23.289-.197-4.305-3.368-16.697-3.336-21.144C21.4 19.006 24.08 9.5 24.08 9.5s13.435-1.658 25.341 11.95c11.907 13.606 30.322 38.916 42.532 38.99 16.933.103 27.677-5.445 32.213-16.785 4.536-11.339 10.961-27.997 13.985-34.233 3.024-6.237 12.67-8.284 12.67-8.284s8.028 14.693 9.54 22.064c1.512 7.37 4.438 13.46 5.383 23.855.945 10.394 3.827 19.702 8.93 22.348 5.102 2.646 25.607-.236 28.253.52 2.646.756 9.544 5.48 9.544 15.686 0 10.205-4.252 16.253-3.307 20.221.945 3.97 8.41 15.403-1.985 22.206-7.83 5.126-10.252 13.891-11.764 19.183-1.512 5.291-8.505 5.48-10.395 6.425-1.89.945-8.365 5.476-2.645 21.545 6.945 19.513 4.819 24.096 4.252 38.459-.567 14.363-3.922 29.53-3.733 38.979.19 9.45.331 19.844.331 19.844l-187.193.614z" fill="#111" stroke="#000" stroke-width=".265"/><path d="M30.427 275.545c-3.59 1.89 19.088-18.332 18.71-22.301-.378-3.969-6.426-9.827-.567-10.772 5.859-.945 16.253-.378 17.954-2.457 1.7-2.079 8.882-.756 18.899 6.236 10.016 6.993 18.142 10.017 22.3 9.072 4.158-.945 2.268 16.064.567 15.875-1.7-.19-13.985-15.12-17.009-15.686-3.024-.567-5.291 1.512-5.48 3.402-.19 1.89-.19 4.157-.19 4.157s-6.236-9.638-9.07-10.394c-2.836-.756-7.75.756-8.883 2.835-1.134 2.079-1.701 0-4.725 2.268-3.024 2.268-3.522 10.97-3.402 11.717 1.89 11.717-29.104 6.048-29.104 6.048z" fill-opacity=".732" stroke="#000" stroke-width=".265"/><path d="M107.892 86.844s2.914-4.176 5.515-5.723c1.564-.93 4.162-1.414 5.746-.89 1.585.522 4.942 3.147 4.965 3.184 0 0-1.983.768-5.233 1.18-3.313.422-10.993 2.25-10.993 2.25z"/><path d="M120.115 84.373c-.368-.919-1.131-2.52-2.03-2.864-.898-.344-2.576.179-4.263 1.398-1.688 1.22-2.303 2.182-2.594 2.567 1.668-.025 6.285-.19 8.887-1.101z" fill="#fff"/><path d="M116.83 81.918c.978-.432 1.54.75 1.71 1.534.208.945.493 1.41-.806 1.66-1.3.25-1.306-.007-1.44-.697-.14-.729-.266-2.031.536-2.497z"/><path d="M66.902 207.698c-1.323 7.748-2.08 14.174-.378 15.875 1.7 1.7 8.504 3.213 10.772.945 2.268-2.268 6.615-7.182 5.67-9.828-.945-2.645-6.615-10.583-10.206-10.016-3.59.567-4.724.567-5.858 3.024zM94.872 222.25c-3.78-16.253-3.213-25.513.756-24.568 3.969.944 18.332 2.834 21.356 7.181 3.023 4.347 18.142 27.214 21.166 37.609 3.024 10.394-3.59 16.442 11.15 18.143 14.742 1.7 15.687-6.048 17.01-4.347 1.322 1.7-.945 12.851-2.08 14.552-1.133 1.7-49.136 5.103-52.349 0-3.213-5.103-17.009-48.57-17.009-48.57z" fill-opacity=".732" stroke="#000" stroke-width=".265"/><path d="M30.073 82.777c-4.607 6.85-1.207 7.894 2.079 9.355 16.784 7.46 23.809-1.282 30.025-4.63 6.508-3.506 15.875-24.002 15.497-28.727-.378-4.724-11.528-14.363-15.308-17.009-3.78-2.645-12.662-17.765-16.63-19.843-3.97-2.08-6.993-4.158-11.151-2.08-4.158 2.08-7.182 5.481-7.182 10.773s.756 12.284.567 14.93c-.189 2.646-.567 7.749.756 14.174 1.323 6.426 3.402 13.607 5.67 16.82 2.268 3.213 5.103 5.48 5.103 7.182 0 1.7-2.08 5.102-4.158 3.024-2.08-2.08-4.701-5.292-5.268-3.97z" opacity=".5" fill="#ffe200"/><path d="M41.01 49.515c0 4.914.378 15.119 2.646 18.899 2.268 3.78 2.457 7.37 2.457 10.961 0 3.59 4.914 7.182 8.505 4.158 3.59-3.024 4.535-7.37 2.456-11.34-2.078-3.968-9.26-10.583-11.906-14.93-2.646-4.346-4.158-7.748-4.158-7.748z" fill-opacity=".732" stroke="#000" stroke-width=".265"/><path d="M146.088 9.45c-4.347 6.236-10.395 22.489-11.717 27.025-1.323 4.535-7.749 12.85-5.103 15.875 2.646 3.024 17.954 4.346 20.41 5.48 2.457 1.134.946 4.536 5.292 9.26 4.347 4.725 13.418 6.048 13.418 3.025 0-3.024 0-7.938-1.89-10.962s-.944-3.968-1.322-8.315c-.378-4.347-2.646-17.576-4.158-19.655-1.512-2.079-4.158-8.693-5.67-11.528-1.512-2.835-4.913-10.206-6.614-10.206h-2.646z" opacity=".5" fill="#ffe200"/><path d="M148.545 29.482c-1.512 6.993-3.402 9.639-2.457 14.93.945 5.292.945 9.26 3.59 10.017 2.646.756 4.158-10.395 4.158-15.12 0-4.724-5.291-9.827-5.291-9.827z" fill-opacity=".732" stroke="#000" stroke-width=".265"/><path d="M-1.323 274.6c7.182-8.127 10.961-20.033 18.71-19.844 7.748.189 10.583-.567 11.34-6.237.755-5.67 4.535-11.717 10.205-17.009 5.67-5.291 15.293-19.98 12.647-26.406-2.646-6.426-3.232-15.786-.391-18.343 2.71-2.44 4.902-2.123 7.587-1.684 2.686.438 10.968 7.674 10.59 2.382-.378-5.292-6.999-16.425-12.48-19.449-5.48-3.023-14.93-.189-14.552-9.638.378-9.45 4.725-16.63 6.426-14.552 1.7 2.079 6.615 14.174 14.93 13.985 8.315-.189 4.725-24.001 1.89-26.836-2.835-2.835 16.82-24.758 18.899-25.703 2.079-.945-3.213-7.937-.945-10.772 2.268-2.835 27.781-26.458 32.884-26.647 5.102-.19 23.812 1.7 23.245 7.37-.567 5.67.945 17.387-3.213 23.624-4.157 6.236 43.864-2.125 42.741-3.965-2.456-4.025-3.414-13.404-1.467-16.699 3.888-6.58 10.468-7.135 23.263-8.557-11.7.078-17.992.44-20.21.9-8.72 1.809-15.411 6.587-19.758 6.587-4.347 0-17.812-15.591-25.56-17.67-7.75-2.08-26.223-5.386-30.38-3.308-4.158 2.08-8.982 4.746-13.04 3.97-9.583-1.835-10.874-2.848-11.212-4.2-4.347 9.071-25.075 45.588-26.964 49.745-1.89 4.158-1.89 13.607 2.078 13.607 3.97 0 3.591 5.86-1.133 8.316-4.725 2.457-15.686 4.347-17.765 7.182-2.08 2.834-5.859 46.869-7.182 51.404-1.323 4.536-12.473 33.262-22.3 46.302-9.828 13.04-12.852 26.837-13.04 30.805-.19 3.97 4.157 11.34 4.157 11.34z" opacity=".881" fill="url(#b)" stroke="#fff" stroke-width=".265"/><path d="M141.174 93.171c-7.937 4.914-22.678 16.631-27.403 17.576-4.725.945-15.308 3.213-20.978-2.457-5.67-5.67-6.236-9.26-13.418-1.512-7.182 7.749-15.308 20.6-15.308 24.569 0 3.968 6.237 12.095 4.158 16.82-2.08 4.724-9.45 4.913 1.7 14.93 11.15 10.016 28.916 25.324 38.932 34.585 10.017 9.26 18.899 18.52 22.868 26.269 3.968 7.748 14.174 14.741 22.867 14.174 8.694-.567 23.057-5.103 24.002-17.576.945-12.473 2.268-19.466 3.78-22.867 1.511-3.402 0-17.387-.945-25.514-.945-8.126-3.78-15.119 3.968-18.52 7.749-3.402 12.948-4.513 12.663-9.64-.559-10.017 8.942-12.922 5.39-15.398-3.55-2.475-11.904-.29-19.052 3.335-6.111 3.099-9.095 4.97-12.796 4.889-8.504-.19-26.417 6.088-29.67 7.007-3.692 1.043-12.95 1.583-12.741-1.782.316-5.096 13.306-5.799 17.842-5.799 4.535 0 13.432.09 17.212-1.8 3.78-1.89 14.349-16.91 15.105-22.012.756-5.103 1.512-20.222-2.268-22.868-3.78-2.645-3.024-7.37-5.48-7.937-2.458-.567-12.663-2.079-16.065 0-3.402 2.079-14.363 11.528-14.363 11.528z" fill="#e6d35b" stroke="#bdbdbd" stroke-width=".265"/><path d="M171.16 86.164c-1.983-.57-7.39-1.193-10.676.636-4.002 2.227-10.595 11.07-10.595 11.07s6.147-3.202 10.116-3.007c3.968.196 5.006 1.143 5.006 1.143s-6.71.839-9.361 3.764c-2.651 2.924-3.22 4.152-3.22 4.152s5.108-3.204 7.565-3.389c2.457-.185 3.874.007 3.874.007s-6.808 2.729-7.66 4.05c-.853 1.322-2.276 4.532-2.276 4.532s3.596-3.018 7.377-3.767c3.78-.75 3.873.29 3.873.29s-2.838 2.357-5.393 4.432c-2.555 2.074-4.446 2.45-4.446 2.45s5.103.102 6.994-.65l1.891-.753s-4.354 4.15-6.244 4.62c-1.891.469-2.459.751-2.459.751l8.034-1.025-13.144 5.363s7.09-1.783 9.167-.457c2.077 1.327 1.509 1.704 1.509 1.704s-1.707 3.399-3.313 3.585c-1.607.186-2.364.846-2.364.846l3.4.384-5.11 4.905-1.985.186s3.21 1.8 4.25 1.613c1.04-.187 1.32 1.42-.948 1.7-2.269.28-3.97.749-3.97.749s12.48.51 15.699-3.17c3.219-3.68 11.25-15.065 11.877-16.649.766-1.933 1.77-13.393 1.49-15.85-.28-2.457-.798-8.156-1.365-8.629-3.12-4.106-2.919-4.222-7.593-5.586z" fill="#b9aa2c"/><g opacity=".753" fill="none" stroke="#fff" stroke-width=".265"><path d="M161.775 109.513s-44.447 19.957-52.424 43.472c-7.978 23.515-5.711 23.992-5.711 23.992" opacity=".5"/><path d="M160.463 103.369s-16.349.633-23.346 3.456" opacity=".567"/><path d="M159.418 106.296s-26.19 9.405-29.313 11.573" opacity=".516"/><path d="M160.346 116.22s-12.478 2.908-17.036 15.656c-4.557 12.75-4.186 16.435-4.186 16.435" opacity=".529"/><path d="M160.346 116.22s-10.5 6.596-12.872 12.356c-2.373 5.76-4.66 16.718-4.663 18.608" opacity=".522"/><path d="M157.499 123.49s-6.15 4.998-7.49 14.635c-1.34 9.636.545 12.757.545 12.757" opacity=".497"/><path d="M153.705 131.8c-2.088 5.288-3.793 7.27-2.476 10.768 1.317 3.498 1.882 4.728 1.882 4.728" opacity=".532"/><path d="M160.614 125.008s-4.644 8.497-5.132 17.095" opacity=".503" filter="url(#c)"/><path d="M165.628 121.898s-4.555 11.143-3.617 15.208c.938 4.065 4.05 7.566 3.197 9.266" opacity=".516"/><path d="M171.207 119.924s-3.034 5.759-2.474 9.54" opacity=".564"/><path d="M174.038 122.102s-1.708 4.06-1.334 6.329" opacity=".503"/><path d="M181.043 114.743s-.858 4.44-.391 7.56" opacity=".481"/><path d="M179.332 120.788s.37 4.63.84 5.671" opacity=".609"/><path d="M185.21 109.648s-1.993 4.91 4.143 8.228" opacity=".497"/></g><path d="M86.661 58.915l-4.534-5.353 2.663 5.483-7.027-8.065 3.063 4.919-3.82-3.928s1.175 3.45 1.976 4.492c.802 1.04 1.84 2.176 1.84 2.176s-2.172-1.374-3.114-2.793c-.943-1.419-1.792-2.318-1.792-2.318s1.365 3.262 1.648 3.546l1.037 1.042s-2.69-1.517-3.114-2.132c-.424-.615-1.273-1.514-1.273-1.514s1.978 3.783 3.205 4.541c1.227.758 2.783 2.273 2.783 2.273s-3.918-1.613-5.429-2.608c-1.062-.7-2.594-2.697-2.594-2.697s2.591 4.492 3.818 5.44c1.227.947 2.55 1.421 2.55 1.421" fill="#aaa" stroke="#fff" stroke-width=".065" stroke-linejoin="round" stroke-miterlimit="0"/><path d="M160.17 77.455s-.855-1.19-1.443-1.689c-.419-.355-.907-1.771-.907-1.771s.052.94.079 1.161c.026.222.4.83.4.83s-.695-.332-.748-1.162c-.052-.83-.265-1.328-.265-1.328l-.377 1.714-.158-1.493-.216 1.05s-.347-.747-.426-1.273c-.08-.525-.16-.94-.16-.94s-.189 1.244-.19 1.52c0 .277 0 0 0 0s-.48-.084-.533-.72c-.053-.636-.185-1.216-.185-1.216l-.163 1.52s-.587-.996-.587-1.411c0-.415-.052-.94-.052-.94l-.377 1.575s-.24-.526-.32-1.079a4.405 4.405 0 01.002-1.106l-.538 1.299s-.587-.803-.586-1.273c0-.47-.16-.802-.16-.802l-.242 1.078s-.427-.582-.48-.996a35.187 35.187 0 00-.159-1.051l-.216 1.216s-.4-1.08-.399-1.3v-.222l-.323 1.438s.054-.415-.106-.83-.159-.913-.159-.913l-.27 1.327c-.135-.505-.164-.106-.425-1.66-1.005 2.038.247 2.019.317 2.849" fill="#989898" stroke="#fff" stroke-width=".081"/><path d="M72.916 73.274l-4.78-1.494 3.675 2.726-7.32-2.133 3.71 2.039-3.81-.8s2.003 2.019 2.883 2.358c.88.339 1.94.61 1.94.61s-1.848.224-2.955-.328c-1.106-.553-1.963-.751-1.963-.751s2.05 1.754 2.33 1.808l1.025.197s-2.22.425-2.71.195c-.489-.23-1.345-.428-1.345-.428s2.621 1.796 3.658 1.654c1.038-.141 2.558.116 2.558.116S66.8 80.133 65.5 80.26c-.915.088-2.599-.567-2.599-.567s3.262 1.987 4.37 1.995c1.106.008 2.097-.414 2.097-.414" fill="#b5b5b5" stroke="#fff" stroke-width=".055" stroke-linejoin="round" stroke-miterlimit="0"/><path d="M80.128 65.544l-4.589-3.085 3.325 3.819-7.05-4.584 3.45 3.202-3.71-2.1s1.745 2.57 2.582 3.196a28.575 28.575 0 001.862 1.256s-1.877-.457-2.913-1.36c-1.036-.905-1.868-1.394-1.868-1.394s1.825 2.345 2.098 2.494l1 .549s-2.275-.407-2.735-.794c-.46-.386-1.292-.875-1.292-.875s2.391 2.588 3.448 2.83c1.056.243 2.544 1.025 2.544 1.025s-3.155-.082-4.472-.433c-.926-.248-2.527-1.452-2.527-1.452s3.008 2.993 4.115 3.397c1.107.405 2.152.373 2.152.373" fill="#b1b1b1" stroke="#fff" stroke-width=".054" stroke-linejoin="round" stroke-miterlimit="0"/><text transform="rotate(-90 219.253 488.77) scale(2.29118)" style="line-height:1.25;white-space:pre;shape-inside:url(#d)" font-weight="400" font-size="10.583" font-family="sans-serif"><tspan x="192.824" y="215.607"><tspan fill="#2d2d2d">kle</tspan><tspan fill="#efe100">suns</tspan></tspan></text></svg>